<svg xmlns="http://www.w3.org/2000/svg" view-box="0 0 200 250" width="200px" height="250px" fill="#000000" data-originalfillcolor="#ffffff" transform="rotate(0) scale(1, 1)">
<g>
<path d="M10 160 l90 90 90 -90 h-41.1 a50 50 0 0 1 -97.9 0 z"/>
<path d="M10 140 l90 -90 90 90 h-41.1 a50 50 0 0 0 -97.9 0 z"/>
<path d="M45 0 h10 v80 l-10 10 z"/>
<path d="M65 0 h10 v60 l-10 10 z"/>
<path d="M85 0 h10 v40 l-10 10 z"/>
<path d="M115 0 h-10 v40 l10 10 z"/>
<path d="M135 0 h-10 v60 l10 10 z"/>
<path d="M155 0 h-10 v80 l10 10 z"/>
</g>
<g id="logo-r" transform="translate(73,122),scale(1,0.8)">
<path d="M 0.098 2.589 L 0.049 1.905 Q 0.006 1.173 1.235 0.859 A 5.327 5.327 0 0 1 1.587 0.782 Q 2.937 0.533 12.781 0.284 A 1122.016 1122.016 0 0 1 16.504 0.196 Q 25.537 0.001 30.908 0.001 A 40.309 40.309 0 0 1 38.681 0.708 Q 44.678 1.887 49.072 5.03 A 18.253 18.253 0 0 1 56.865 18.402 A 26.038 26.038 0 0 1 57.031 21.388 A 40.481 40.481 0 0 1 56.81 25.756 Q 56.572 27.947 56.076 29.776 A 17.241 17.241 0 0 1 54.98 32.764 A 16.675 16.675 0 0 1 52.742 36.176 Q 50.688 38.639 47.412 41.016 Q 46.577 41.597 46.363 42.124 A 0.944 0.944 0 0 0 46.289 42.481 Q 46.311 42.481 51.676 53.561 A 16307.966 16307.966 0 0 1 52.246 54.737 Q 58.15 66.933 58.203 68.288 A 0.606 0.606 0 0 1 58.203 68.311 A 0.267 0.267 0 0 1 58.095 68.517 Q 57.879 68.702 57.227 68.8 Q 55.371 69.093 47.9 69.093 A 220.61 220.61 0 0 1 45.127 69.076 Q 41.698 69.033 39.901 68.873 A 18.394 18.394 0 0 1 39.209 68.8 Q 38.204 68.663 38.011 68.568 A 0.198 0.198 0 0 1 37.988 68.555 Q 37.695 68.409 37.305 67.579 Q 36.572 65.675 35.156 61.915 Q 33.698 58.176 30.981 51.719 A 1117.425 1117.425 0 0 0 29.199 47.511 A 3.154 3.154 0 0 0 27.618 45.97 Q 27.041 45.696 26.292 45.551 A 8.95 8.95 0 0 0 25.146 45.411 Q 26.479 45.5 21.223 45.508 A 727.802 727.802 0 0 1 20.117 45.509 Q 19.385 45.509 19.385 47.999 A 51.066 51.066 0 0 0 19.423 49.863 Q 19.502 51.997 19.743 55.001 A 238.608 238.608 0 0 0 19.995 57.911 Q 20.462 62.958 20.572 66.087 A 50.036 50.036 0 0 1 20.605 67.823 A 2.387 2.387 0 0 1 20.585 68.148 Q 20.535 68.508 20.364 68.678 A 0.503 0.503 0 0 1 20.166 68.8 L 18.799 68.897 Q 15.97 69.089 10.035 69.093 A 374.74 374.74 0 0 1 9.814 69.093 A 263.223 263.223 0 0 1 7.392 69.082 Q 2.733 69.039 1.5 68.816 A 3.441 3.441 0 0 1 1.416 68.8 A 2.61 2.61 0 0 1 0.822 68.607 Q 0 68.216 0 67.286 A 160.722 160.722 0 0 1 0.032 64.259 Q 0.128 59.212 0.512 51.099 A 596.774 596.774 0 0 1 0.513 51.075 Q 1.025 40.235 1.025 34.815 Q 1.025 17.792 0.395 6.938 A 198.779 198.779 0 0 0 0.098 2.589 Z M 37.695 24.513 A 14.094 14.094 0 0 0 37.388 21.461 Q 36.982 19.631 36.038 18.306 A 7.203 7.203 0 0 0 33.789 16.261 A 10.223 10.223 0 0 0 31.499 15.315 Q 28.697 14.503 24.316 14.503 A 23.334 23.334 0 0 0 22.79 14.548 Q 20.549 14.696 19.774 15.322 A 1.033 1.033 0 0 0 19.385 15.919 Q 19.111 17.472 19.093 24.497 A 395.355 395.355 0 0 0 19.092 25.489 Q 19.092 26.612 19.141 28.809 A 331.675 331.675 0 0 1 19.162 29.838 Q 19.189 31.258 19.189 32.062 A 46.62 46.62 0 0 1 19.189 32.081 A 0.143 0.143 0 0 0 19.264 32.188 Q 19.531 32.378 20.752 32.569 Q 23.73 33.009 27.002 33.009 A 19.753 19.753 0 0 0 30.905 32.658 Q 36.958 31.432 37.615 25.92 A 11.885 11.885 0 0 0 37.695 24.513 Z" vector-effect="non-scaling-stroke"/>
</g>
</svg>